# xmcd CD database file
#
# Track frame offsets:
#	182
#	12410
#	25620
#	40027
#	51937
#	66525
#	79127
#	91557
#	106112
#	118225
#	132010
#	143732
#	157157
#	167865
#	182260
#	196502
#	208347
#	222187
#	234772
#	246757
#	257487
#
# Disc length: 3675 seconds
#
# Revision: 7
# Processed by: cddbd v1.5.1PL0 Copyright (c) Steve Scherf et al.
# Submitted via: jetAudio 5
#
DISCID=140e5915
DTITLE=Dolly Parton - The Best Of Dolly Parton
DYEAR=1997
DGENRE=Country
TTITLE0=Jolene
TTITLE1=I Will Always Love You
TTITLE2=Lonely Comin' Down
TTITLE3=It's My Time
TTITLE4=Harper Valley P.T.A.
TTITLE5=Mama Say A Prayer
TTITLE6=D.I.V.O.R.C.E.
TTITLE7=We Used To
TTITLE8=Bobby's Arms
TTITLE9=The Seeker
TTITLE10=Hold Me
TTITLE11=Here You Come Again
TTITLE12=Lovin' You
TTITLE13=Sweet Music Man
TTITLE14=I Really Got The Feeling
TTITLE15=Baby I'm Burnin'
TTITLE16=Two Doors Down
TTITLE17=9 To 5
TTITLE18=Me And Little Andy
TTITLE19=Love Is Like A Butterfly
TTITLE20=Do I Ever Cross Your Mind?
EXTD=
EXTT0=
EXTT1=
EXTT2=
EXTT3=
EXTT4=
EXTT5=
EXTT6=
EXTT7=
EXTT8=
EXTT9=
EXTT10=
EXTT11=
EXTT12=
EXTT13=
EXTT14=
EXTT15=
EXTT16=
EXTT17=
EXTT18=
EXTT19=
EXTT20=
PLAYORDER=
